<?xml version="1.0" encoding="utf-8"?>
<!-- Generator: Adobe Illustrator 23.0.1, SVG Export Plug-In . SVG Version: 6.00 Build 0)  -->
<svg version="1.1" id="Layer_1" xmlns="http://www.w3.org/2000/svg" xmlns:xlink="http://www.w3.org/1999/xlink" x="0px" y="0px"
	 viewBox="0 0 65 65" style="enable-background:new 0 0 65 65;" xml:space="preserve">
<style type="text/css">
	.st0{fill:url(#SVGID_1_);}
</style>
<linearGradient id="SVGID_1_" gradientUnits="userSpaceOnUse" x1="2.8331" y1="-3.0163" x2="66.0606" y2="61.0048">
	<stop  offset="0" style="stop-color:#DCDCDC"/>
	<stop  offset="0.1291" style="stop-color:#D5D5D5;stop-opacity:0.9006"/>
	<stop  offset="0.3161" style="stop-color:#C2C2C2;stop-opacity:0.7566"/>
	<stop  offset="0.5385" style="stop-color:#A2A2A2;stop-opacity:0.5854"/>
	<stop  offset="0.7858" style="stop-color:#777777;stop-opacity:0.3949"/>
	<stop  offset="1" style="stop-color:#4B4B4B;stop-opacity:0.23"/>
</linearGradient>
<path class="st0" d="M3.91,1.01c0,0.43,1.1,13.16,2.46,28.29C7.7,44.4,8.86,57.22,8.89,57.77l0.09,0.98l11.72,3.24l11.69,3.24
	l2.34-0.64c1.27-0.35,6.51-1.79,11.66-3.21c7.98-2.2,9.34-2.66,9.46-3.15c0.14-0.69,5.06-56.44,5.06-57.36V0.23H3.91V1.01z
	 M50.4,13.31c-0.12,0.69-0.87,8.91-1.68,18.31c-0.84,9.37-1.53,17.13-1.59,17.18c-0.12,0.14-14.32,4.08-14.72,4.08
	c-0.29,0-8.04-2.11-13.34-3.62l-1.48-0.43l-0.35-3.82c-0.17-2.11-0.4-4.66-0.52-5.67l-0.17-1.79h3.62c4.08,0,3.96-0.06,3.99,2.46
	c0,0.64,0.09,1.62,0.17,2.2l0.17,1.04l3.96,1.04l3.93,1.04l3.91-1.04c2.14-0.58,3.93-1.07,3.93-1.07c0.03-0.03,0.2-1.74,0.38-3.79
	c0.17-2.08,0.38-4.11,0.46-4.57l0.14-0.78H16.41l-0.14-0.67c-0.09-0.35-0.26-2.02-0.38-3.76l-0.2-3.1h26.06l0.17-1.97
	c0.12-1.07,0.29-2.72,0.38-3.64c0.12-1.19,0.09-1.65-0.14-1.5c-0.17,0.09-6.34,0.09-13.74-0.03l-13.45-0.17l-0.17-2.05
	c-0.12-1.13-0.26-2.75-0.35-3.59l-0.17-1.5h36.28L50.4,13.31z"/>
</svg>
