<?xml version="1.0" encoding="utf-8"?>
<!-- Generator: Adobe Illustrator 23.0.1, SVG Export Plug-In . SVG Version: 6.00 Build 0)  -->
<svg version="1.1" id="Layer_1" xmlns="http://www.w3.org/2000/svg" xmlns:xlink="http://www.w3.org/1999/xlink" x="0px" y="0px"
	 viewBox="0 0 65 65" style="enable-background:new 0 0 65 65;" xml:space="preserve">
<style type="text/css">
	.st0{fill:url(#SVGID_1_);}
</style>
<linearGradient id="SVGID_1_" gradientUnits="userSpaceOnUse" x1="5.7833" y1="13.1951" x2="66.4892" y2="53.9598">
	<stop  offset="0" style="stop-color:#DCDCDC"/>
	<stop  offset="0.1291" style="stop-color:#D5D5D5;stop-opacity:0.9006"/>
	<stop  offset="0.3161" style="stop-color:#C2C2C2;stop-opacity:0.7566"/>
	<stop  offset="0.5385" style="stop-color:#A2A2A2;stop-opacity:0.5854"/>
	<stop  offset="0.7858" style="stop-color:#777777;stop-opacity:0.3949"/>
	<stop  offset="1" style="stop-color:#4B4B4B;stop-opacity:0.23"/>
</linearGradient>
<path class="st0" d="M65,51.75c-2.36,0.6-3.83,0.03-5.14-1.94L50.53,36.9l-1.35-1.79l-10.9,14.74c-1.25,1.77-2.55,2.55-4.88,1.92
	l13.95-18.73L34.37,16.12c2.23-0.43,3.78-0.21,5.15,1.79l9.68,13.07l9.75-13c1.25-1.77,2.59-2.45,4.83-1.79l-5.04,6.68l-6.83,8.89
	c-0.81,1.02-0.7,1.71,0.05,2.69L65,51.75z M0.02,32.72l1.14-5.61C4.27,16,17,11.38,25.78,18.25c5.13,4.04,6.41,9.75,6.15,16.15H3.01
	c-0.43,11.52,7.85,18.47,18.42,14.92c3.71-1.25,5.89-4.15,6.98-7.78c0.55-1.82,1.47-2.1,3.18-1.58c-0.87,4.54-2.84,8.34-7.01,10.71
	c-6.22,3.55-15.1,2.41-19.77-2.53c-2.78-2.87-3.93-6.5-4.45-10.38C0.28,37.1,0.12,36.49,0,35.88C0.01,34.83,0.02,33.78,0.02,32.72
	L0.02,32.72z M3.06,31.95h26.15c-0.17-8.33-5.36-14.24-12.44-14.29C8.98,17.6,3.4,23.37,3.06,31.95z"/>
</svg>
