<?xml version="1.0" encoding="utf-8"?>
<!-- Generator: Adobe Illustrator 23.0.1, SVG Export Plug-In . SVG Version: 6.00 Build 0)  -->
<svg version="1.1" id="Layer_1" xmlns="http://www.w3.org/2000/svg" xmlns:xlink="http://www.w3.org/1999/xlink" x="0px" y="0px"
	 viewBox="0 0 65 65" style="enable-background:new 0 0 65 65;" xml:space="preserve">
<style type="text/css">
	.st0{fill:url(#SVGID_1_);}
</style>
<linearGradient id="SVGID_1_" gradientUnits="userSpaceOnUse" x1="-0.1497" y1="1.5846" x2="65.6776" y2="66.3328">
	<stop  offset="0" style="stop-color:#DCDCDC"/>
	<stop  offset="0.1291" style="stop-color:#D5D5D5;stop-opacity:0.9006"/>
	<stop  offset="0.3161" style="stop-color:#C2C2C2;stop-opacity:0.7566"/>
	<stop  offset="0.5385" style="stop-color:#A2A2A2;stop-opacity:0.5854"/>
	<stop  offset="0.7858" style="stop-color:#777777;stop-opacity:0.3949"/>
	<stop  offset="1" style="stop-color:#4B4B4B;stop-opacity:0.23"/>
</linearGradient>
<path class="st0" d="M32.47,1.91c-18,0-32,14-32,32c0,21,19,30,22,30c2,0,2-1,2-2v-5c-7,2-10-2-11-5c0,0,0-1-2-3c-1-1-5-3-1-3
	c3,0,5,4,5,4c3,4,7,3,9,2c0-2,2-4,2-4c-8-1-14-4-14-15c0-4,1-7,3-9c0,0-2-4,0-9c0,0,5,0,9,4c3-2,13-2,16,0c4-4,9-4,9-4c2,7,0,9,0,9
	c2,2,3,5,3,9c0,11-7,14-14,15c1,1,2,3,2,6v8c0,1,0,2,2,2c3,0,22-9,22-30C64.47,15.91,50.47,1.91,32.47,1.91z"/>
</svg>
