<?xml version="1.0" encoding="utf-8"?>
<!-- Generator: Adobe Illustrator 23.0.1, SVG Export Plug-In . SVG Version: 6.00 Build 0)  -->
<svg version="1.1" id="Layer_1" xmlns="http://www.w3.org/2000/svg" xmlns:xlink="http://www.w3.org/1999/xlink" x="0px" y="0px"
	 viewBox="0 0 65 65" style="enable-background:new 0 0 65 65;" xml:space="preserve">
<style type="text/css">
	.st0{fill:url(#SVGID_1_);}
</style>
<linearGradient id="SVGID_1_" gradientUnits="userSpaceOnUse" x1="9.195" y1="8.0706" x2="66.382" y2="68.015">
	<stop  offset="0" style="stop-color:#DCDCDC"/>
	<stop  offset="0.1291" style="stop-color:#D5D5D5;stop-opacity:0.9006"/>
	<stop  offset="0.3161" style="stop-color:#C2C2C2;stop-opacity:0.7566"/>
	<stop  offset="0.5385" style="stop-color:#A2A2A2;stop-opacity:0.5854"/>
	<stop  offset="0.7858" style="stop-color:#777777;stop-opacity:0.3949"/>
	<stop  offset="1" style="stop-color:#4B4B4B;stop-opacity:0.23"/>
</linearGradient>
<path class="st0" d="M64.97,0.45c0-0.47,0.06-0.41-0.41-0.41c-10.68,0-21.36,0-32.03,0c-10.7,0-21.4,0-32.1,0
	c-0.46,0-0.41-0.06-0.41,0.41c0,21.37,0,42.73,0,64.1c0,0.47-0.06,0.42,0.4,0.42c21.38,0,42.75,0,64.13,0
	c0.46,0,0.41,0.06,0.41-0.42C64.97,43.18,64.97,21.82,64.97,0.45z M35.33,40.88c-0.01,0-0.01,0-0.02,0c0,3.54,0.04,7.08-0.02,10.62
	c-0.03,1.88-0.54,3.66-1.69,5.2c-1.12,1.5-2.65,2.38-4.46,2.79c-2.43,0.55-4.84,0.49-7.18-0.46c-2.2-0.89-3.74-2.49-4.79-4.59
	c-0.07-0.13-0.06-0.21,0.08-0.29c1.54-0.93,3.08-1.86,4.62-2.8c0.16-0.1,0.22-0.05,0.3,0.09c0.34,0.61,0.71,1.2,1.16,1.74
	c1.25,1.52,3.41,1.37,4.49,0.81c0.84-0.43,1.15-1.22,1.31-2.09c0.1-0.53,0.12-1.06,0.12-1.6c0-6.7,0-13.4-0.01-20.11
	c0-0.33,0.1-0.4,0.41-0.39c1.79,0.01,3.58,0.01,5.37,0c0.26,0,0.32,0.08,0.32,0.33C35.33,33.72,35.33,37.3,35.33,40.88z
	 M59.06,55.02c-1.03,2.12-2.77,3.39-4.95,4.13c-1.35,0.46-2.86,0.68-4.14,0.67c-2.83-0.03-5.26-0.55-7.46-1.95
	c-1.61-1.02-2.84-2.39-3.75-4.06c-0.09-0.17-0.08-0.25,0.1-0.35c1.51-0.86,3.01-1.73,4.51-2.61c0.21-0.12,0.29-0.07,0.4,0.11
	c0.7,1.11,1.54,2.1,2.72,2.71c1.65,0.86,3.38,0.98,5.14,0.41c0.97-0.32,1.75-0.92,2.01-1.96c0.31-1.21-0.04-2.23-1.02-3.02
	c-0.63-0.51-1.36-0.85-2.08-1.19c-1.39-0.65-2.83-1.18-4.2-1.86c-1.41-0.7-2.73-1.53-3.8-2.7c-1.16-1.28-1.8-2.78-1.99-4.49
	c-0.17-1.53-0.08-3.02,0.52-4.45c0.86-2.03,2.35-3.45,4.4-4.21c2.81-1.05,5.65-1.02,8.42,0.14c1.83,0.76,3.09,2.18,4.08,3.86
	c0.08,0.13,0.05,0.19-0.07,0.27c-1.47,0.94-2.95,1.89-4.41,2.84c-0.14,0.09-0.2,0.06-0.28-0.08c-0.3-0.52-0.64-1.01-1.09-1.42
	c-1.2-1.07-2.59-1.31-4.05-0.75c-2,0.76-1.92,3.22-0.9,4.27c0.45,0.46,0.98,0.78,1.54,1.07c1.25,0.65,2.58,1.14,3.86,1.72
	c1.52,0.69,3,1.46,4.3,2.53c1.73,1.42,2.71,3.24,2.92,5.48C59.95,51.81,59.81,53.47,59.06,55.02z"/>
</svg>
