<?xml version="1.0" encoding="utf-8"?>
<!-- Generator: Adobe Illustrator 23.0.1, SVG Export Plug-In . SVG Version: 6.00 Build 0)  -->
<svg version="1.1" id="Layer_1" xmlns="http://www.w3.org/2000/svg" xmlns:xlink="http://www.w3.org/1999/xlink" x="0px" y="0px"
	 viewBox="0 0 65 65" style="enable-background:new 0 0 65 65;" xml:space="preserve">
<style type="text/css">
	.st0{fill:url(#SVGID_1_);}
</style>
<linearGradient id="SVGID_1_" gradientUnits="userSpaceOnUse" x1="10.1864" y1="4.5513" x2="66.4805" y2="63.8454">
	<stop  offset="0" style="stop-color:#DCDCDC"/>
	<stop  offset="0.1291" style="stop-color:#D5D5D5;stop-opacity:0.9006"/>
	<stop  offset="0.3161" style="stop-color:#C2C2C2;stop-opacity:0.7566"/>
	<stop  offset="0.5385" style="stop-color:#A2A2A2;stop-opacity:0.5854"/>
	<stop  offset="0.7858" style="stop-color:#777777;stop-opacity:0.3949"/>
	<stop  offset="1" style="stop-color:#4B4B4B;stop-opacity:0.23"/>
</linearGradient>
<path class="st0" d="M60.8,32.01c-0.01-3.83-2.6-7.18-6.3-8.15L62.59,0h-40.1l8.11,23.94c-3.6,1.05-6.07,4.34-6.08,8.09
	c0,2.82,1.41,5.33,3.56,6.87c-0.86,1.22-1.85,2.35-2.94,3.37c-2,1.91-4.34,3.42-6.91,4.46c-2.26-1.52-3.24-4.21-2.35-6.62
	c4.44-1.38,6.93-6.1,5.55-10.54c-1.09-3.51-4.33-5.91-8.01-5.92c-4.65,0.01-8.43,3.78-8.43,8.43c0,2.3,0.94,4.4,2.45,5.91
	c-0.13,0.26-0.26,0.53-0.4,0.81c-1.26,2.6-2.69,5.53-3.24,8.83C2.71,54.2,4.5,59.49,8.81,62.48c2.33,1.65,5.12,2.53,7.98,2.52
	c4.95,0,9.97-2.48,14.83-4.89c3.46-1.71,7.04-3.5,10.56-4.37c1.3-0.32,2.65-0.51,4.08-0.72c2.9-0.41,5.89-0.85,8.58-2.41
	c3.11-1.78,5.27-4.85,5.91-8.37c0.47-2.69,0-5.4-1.2-7.77C60.35,35.17,60.8,33.65,60.8,32.01L60.8,32.01z M57.13,32.01
	c0,2.61-2.13,4.74-4.74,4.74c-2.62-0.01-4.74-2.14-4.73-4.76c0-1.44,0.66-2.81,1.8-3.71l0.02-0.02c0.15-0.11,0.32-0.23,0.49-0.34
	c0,0,0.02,0,0.02-0.02c0.08-0.04,0.15-0.09,0.22-0.14c0.02,0,0.04-0.02,0.06-0.02c0.08-0.04,0.17-0.08,0.26-0.11
	c0.09-0.04,0.19-0.07,0.27-0.11c0.02,0,0.04-0.02,0.05-0.02c0.08-0.02,0.15-0.06,0.23-0.08c0.02,0,0.05-0.02,0.08-0.02
	c0.09-0.02,0.17-0.04,0.26-0.05h0.02l0.28-0.06c0.02,0,0.05,0,0.08-0.02c0.08,0,0.15-0.02,0.22-0.02h0.09c0.09,0,0.19-0.02,0.3-0.02
	h0.24c0.08,0,0.14,0,0.21,0.02h0.04c0.15,0.02,0.3,0.04,0.45,0.08C55.55,27.82,57.13,29.76,57.13,32.01L57.13,32.01z M27.74,3.76
	h29.6l-6.8,20.04c-0.28,0.05-0.56,0.15-0.84,0.24L42.55,9.47l-7.17,14.49c-0.28-0.09-0.58-0.15-0.89-0.21L27.74,3.76L27.74,3.76z
	 M41.19,30.37c-0.35-1.74-1.24-3.32-2.54-4.52l3.89-7.86l3.93,8.04c-1.16,1.16-2.01,2.65-2.35,4.35H41.19L41.19,30.37z M31.76,27.4
	c0.09-0.02,0.17-0.04,0.26-0.05h0.05c0.08-0.02,0.15-0.02,0.23-0.04h0.08c0.08,0,0.13-0.02,0.21-0.02h0.73
	c0.08,0,0.13,0.02,0.19,0.02c0.04,0,0.05,0,0.09,0.02c0.07,0.02,0.13,0.02,0.21,0.04c0.02,0,0.04,0,0.08,0.02l0.26,0.05h0.02
	c0.08,0.02,0.15,0.04,0.22,0.08c0.02,0,0.04,0.02,0.08,0.02c0.06,0.02,0.13,0.04,0.19,0.07c0.02,0,0.04,0.02,0.05,0.02
	c0.08,0.04,0.15,0.06,0.23,0.09h0.02c0.09,0.03,0.17,0.08,0.24,0.13h0.02c0.08,0.04,0.15,0.09,0.23,0.13c0.02,0,0.02,0.02,0.04,0.02
	c0.08,0.04,0.14,0.09,0.21,0.13l0.02,0.02c0.22,0.17,0.43,0.36,0.64,0.54l0.02,0.02c0.84,0.88,1.3,2.06,1.3,3.27
	c-0.09,2.62-2.28,4.67-4.9,4.58c-2.49-0.08-4.5-2.09-4.58-4.58C28.18,29.82,29.66,27.93,31.76,27.4z M13.24,27.27
	c2.62,0,4.74,2.13,4.74,4.74c0,2.61-2.13,4.74-4.74,4.74S8.5,34.63,8.5,32.01S10.63,27.27,13.24,27.27z M57.02,43.59
	c-0.43,2.44-1.93,4.56-4.08,5.78c-2.05,1.19-4.57,1.56-7.23,1.94c-1.49,0.19-2.97,0.45-4.44,0.79c-3.91,0.96-7.68,2.84-11.33,4.65
	c-4.67,2.31-9.07,4.5-13.15,4.5c-2.09,0.01-4.14-0.64-5.83-1.86c-4.14-2.86-3.94-8.22-3.44-11.16c0.45-2.75,1.71-5.32,2.92-7.79
	c0.08-0.15,0.13-0.28,0.21-0.43c0.41,0.15,0.85,0.27,1.3,0.34c-0.71,3.99,1.32,8.11,5.27,10.14l0.72,0.38l0.77-0.28
	c3.29-1.17,6.34-3.07,9.03-5.61c1.49-1.39,2.8-2.95,3.91-4.65c0.43,0.07,0.87,0.09,1.3,0.09c3.83-0.01,7.18-2.6,8.15-6.3h3.16
	c0.96,3.71,4.32,6.3,8.15,6.3c1.56,0,3.01-0.43,4.25-1.16C57.13,40.65,57.28,42.12,57.02,43.59z"/>
</svg>
