<?xml version="1.0" encoding="utf-8"?>
<!-- Generator: Adobe Illustrator 23.0.1, SVG Export Plug-In . SVG Version: 6.00 Build 0)  -->
<svg version="1.1" id="Layer_1" xmlns="http://www.w3.org/2000/svg" xmlns:xlink="http://www.w3.org/1999/xlink" x="0px" y="0px"
	 viewBox="0 0 65 65" style="enable-background:new 0 0 65 65;" xml:space="preserve">
<style type="text/css">
	.st0{fill:url(#SVGID_1_);}
</style>
<g>
	<linearGradient id="SVGID_1_" gradientUnits="userSpaceOnUse" x1="12.2312" y1="10.9156" x2="60.937" y2="62.798">
		<stop  offset="0" style="stop-color:#DCDCDC"/>
		<stop  offset="0.1291" style="stop-color:#D5D5D5;stop-opacity:0.9006"/>
		<stop  offset="0.3161" style="stop-color:#C2C2C2;stop-opacity:0.7566"/>
		<stop  offset="0.5385" style="stop-color:#A2A2A2;stop-opacity:0.5854"/>
		<stop  offset="0.7858" style="stop-color:#777777;stop-opacity:0.3949"/>
		<stop  offset="1" style="stop-color:#4B4B4B;stop-opacity:0.23"/>
	</linearGradient>
	<path class="st0" d="M30.37,0.02c-0.14,0.01-0.58,0.06-0.98,0.09C20.15,0.94,11.51,5.92,6.03,13.57c-3.05,4.26-5,9.08-5.74,14.2
		C0.03,29.56,0,30.09,0,32.51c0,2.42,0.03,2.95,0.29,4.73C2.06,49.44,10.74,59.7,22.52,63.5c2.11,0.68,4.33,1.14,6.86,1.42
		c0.98,0.11,5.24,0.11,6.23,0c4.37-0.48,8.06-1.56,11.71-3.42c0.56-0.29,0.67-0.36,0.59-0.43c-0.05-0.04-2.43-3.23-5.29-7.1
		l-5.2-7.02l-6.51-9.64c-3.58-5.3-6.53-9.63-6.56-9.63c-0.03-0.01-0.05,4.28-0.06,9.5c-0.02,9.15-0.03,9.52-0.14,9.74
		c-0.17,0.31-0.29,0.44-0.56,0.58c-0.2,0.1-0.38,0.12-1.34,0.12h-1.1l-0.29-0.18c-0.19-0.12-0.33-0.28-0.43-0.46l-0.13-0.29
		l0.01-12.74l0.02-12.74l0.2-0.25c0.1-0.13,0.32-0.3,0.47-0.39c0.26-0.13,0.36-0.14,1.46-0.14c1.3,0,1.51,0.05,1.85,0.42
		c0.1,0.1,3.62,5.41,7.84,11.81s9.99,15.13,12.82,19.42l5.15,7.8l0.26-0.17c2.31-1.5,4.75-3.63,6.68-5.86
		c4.11-4.72,6.76-10.48,7.65-16.61c0.26-1.79,0.29-2.31,0.29-4.73c0-2.42-0.03-2.95-0.29-4.73C62.94,15.57,54.26,5.32,42.48,1.52
		c-2.08-0.67-4.29-1.14-6.77-1.42C35.1,0.04,30.9-0.03,30.37,0.02L30.37,0.02z M43.68,19.67c0.3,0.15,0.55,0.44,0.64,0.75
		c0.05,0.17,0.06,3.7,0.05,11.66L44.35,43.5l-2.01-3.09l-2.02-3.09v-8.3c0-5.37,0.03-8.39,0.06-8.53c0.1-0.36,0.32-0.64,0.63-0.8
		c0.26-0.13,0.36-0.15,1.35-0.15C43.3,19.55,43.47,19.56,43.68,19.67z"/>
</g>
</svg>
