<?xml version="1.0" encoding="utf-8"?>
<!-- Generator: Adobe Illustrator 23.0.1, SVG Export Plug-In . SVG Version: 6.00 Build 0)  -->
<svg version="1.1" id="Layer_1" xmlns="http://www.w3.org/2000/svg" xmlns:xlink="http://www.w3.org/1999/xlink" x="0px" y="0px"
	 viewBox="0 0 65 65" style="enable-background:new 0 0 65 65;" xml:space="preserve">
<style type="text/css">
	.st0{fill:url(#SVGID_1_);}
	.st1{fill:url(#SVGID_2_);}
</style>
<g>
	<linearGradient id="SVGID_1_" gradientUnits="userSpaceOnUse" x1="6.3875" y1="6.858" x2="66.0346" y2="65.4462">
		<stop  offset="0" style="stop-color:#DCDCDC"/>
		<stop  offset="0.1291" style="stop-color:#D5D5D5;stop-opacity:0.9006"/>
		<stop  offset="0.3161" style="stop-color:#C2C2C2;stop-opacity:0.7566"/>
		<stop  offset="0.5385" style="stop-color:#A2A2A2;stop-opacity:0.5854"/>
		<stop  offset="0.7858" style="stop-color:#777777;stop-opacity:0.3949"/>
		<stop  offset="1" style="stop-color:#4B4B4B;stop-opacity:0.23"/>
	</linearGradient>
	<path class="st0" d="M29.82,0.69c1.61-0.92,3.71-0.93,5.32,0c8.1,4.58,16.21,9.15,24.31,13.73c1.52,0.86,2.54,2.55,2.53,4.31v27.54
		c0.01,1.83-1.11,3.56-2.72,4.4c-8.07,4.55-16.15,9.11-24.22,13.66c-1.65,0.94-3.79,0.87-5.38-0.15c-2.42-1.4-4.85-2.8-7.27-4.2
		c-0.49-0.29-1.05-0.53-1.4-1.01c0.31-0.42,0.86-0.47,1.31-0.65c1.01-0.32,1.94-0.84,2.87-1.34c0.23-0.16,0.52-0.1,0.75,0.04
		c2.07,1.19,4.12,2.41,6.2,3.58c0.44,0.26,0.89-0.08,1.27-0.29c7.92-4.48,15.86-8.94,23.78-13.42c0.29-0.14,0.46-0.45,0.43-0.77
		c0.01-9.09,0-18.17,0-27.26c0.03-0.36-0.18-0.7-0.51-0.85c-8.05-4.53-16.09-9.07-24.13-13.6c-0.29-0.2-0.66-0.2-0.95,0
		C23.97,8.95,15.93,13.5,7.88,18.03c-0.33,0.15-0.55,0.48-0.51,0.85c0,9.09,0,18.17,0,27.26c-0.03,0.32,0.15,0.63,0.44,0.76
		c2.15,1.22,4.3,2.43,6.44,3.64c1.21,0.65,2.7,1.04,4.03,0.54c1.18-0.42,2-1.62,1.98-2.87c0.01-9.03-0.01-18.07,0.01-27.1
		c-0.03-0.4,0.35-0.73,0.74-0.69c1.03-0.01,2.06-0.01,3.1,0c0.43-0.01,0.73,0.42,0.67,0.83c0,9.09,0.01,18.18-0.01,27.27
		c0,2.42-0.99,5.06-3.23,6.24c-2.76,1.43-6.17,1.13-8.9-0.24c-2.36-1.18-4.61-2.57-6.93-3.83c-1.61-0.83-2.73-2.58-2.71-4.4V18.73
		c-0.02-1.79,1.04-3.52,2.61-4.36C13.68,9.81,21.75,5.25,29.82,0.69z"/>
	<linearGradient id="SVGID_2_" gradientUnits="userSpaceOnUse" x1="9.5086" y1="3.6805" x2="69.1557" y2="62.2687">
		<stop  offset="0" style="stop-color:#DCDCDC"/>
		<stop  offset="0.1291" style="stop-color:#D5D5D5;stop-opacity:0.9006"/>
		<stop  offset="0.3161" style="stop-color:#C2C2C2;stop-opacity:0.7566"/>
		<stop  offset="0.5385" style="stop-color:#A2A2A2;stop-opacity:0.5854"/>
		<stop  offset="0.7858" style="stop-color:#777777;stop-opacity:0.3949"/>
		<stop  offset="1" style="stop-color:#4B4B4B;stop-opacity:0.23"/>
	</linearGradient>
	<path class="st1" d="M36.87,19.77c3.52-0.23,7.29-0.13,10.46,1.6c2.45,1.33,3.81,4.12,3.86,6.84c-0.07,0.37-0.45,0.57-0.8,0.55
		c-1.02,0-2.04,0.01-3.07-0.01c-0.43,0.02-0.69-0.38-0.74-0.77c-0.29-1.3-1-2.6-2.23-3.22c-1.88-0.94-4.07-0.9-6.12-0.88
		c-1.5,0.08-3.11,0.21-4.38,1.09c-0.98,0.67-1.27,2.02-0.92,3.1c0.33,0.78,1.23,1.03,1.97,1.26c4.24,1.11,8.74,1,12.9,2.46
		c1.72,0.6,3.41,1.75,4,3.56c0.77,2.42,0.43,5.31-1.29,7.25c-1.4,1.6-3.43,2.47-5.45,2.94c-2.7,0.6-5.49,0.62-8.23,0.35
		c-2.57-0.29-5.25-0.97-7.24-2.72c-1.7-1.48-2.53-3.78-2.45-5.99c0.02-0.37,0.39-0.64,0.75-0.61c1.03-0.01,2.06-0.01,3.09,0
		c0.41-0.03,0.72,0.33,0.74,0.71c0.19,1.24,0.66,2.55,1.74,3.28c2.09,1.35,4.71,1.26,7.11,1.29c1.98-0.09,4.21-0.11,5.83-1.43
		c0.85-0.75,1.11-2,0.88-3.08c-0.25-0.91-1.2-1.33-2.02-1.61c-4.19-1.33-8.74-0.84-12.88-2.34c-1.68-0.6-3.31-1.72-3.96-3.45
		c-0.9-2.45-0.49-5.48,1.41-7.35C31.65,20.75,34.32,20.03,36.87,19.77L36.87,19.77z"/>
</g>
</svg>
