<?xml version="1.0" encoding="utf-8"?>
<!-- Generator: Adobe Illustrator 23.0.1, SVG Export Plug-In . SVG Version: 6.00 Build 0)  -->
<svg version="1.1" id="Layer_1" xmlns="http://www.w3.org/2000/svg" xmlns:xlink="http://www.w3.org/1999/xlink" x="0px" y="0px"
	 viewBox="0 0 65 65" style="enable-background:new 0 0 65 65;" xml:space="preserve">
<style type="text/css">
	.st0{fill:url(#SVGID_1_);}
	.st1{fill:url(#SVGID_2_);}
</style>
<g>
	<linearGradient id="SVGID_1_" gradientUnits="userSpaceOnUse" x1="0.1338" y1="4.0717" x2="62.0043" y2="63.4242">
		<stop  offset="0" style="stop-color:#DCDCDC"/>
		<stop  offset="0.1291" style="stop-color:#D5D5D5;stop-opacity:0.9006"/>
		<stop  offset="0.3161" style="stop-color:#C2C2C2;stop-opacity:0.7566"/>
		<stop  offset="0.5385" style="stop-color:#A2A2A2;stop-opacity:0.5854"/>
		<stop  offset="0.7858" style="stop-color:#777777;stop-opacity:0.3949"/>
		<stop  offset="1" style="stop-color:#4B4B4B;stop-opacity:0.23"/>
	</linearGradient>
	<path class="st0" d="M26.99,22.78c-1.01-0.39-2.09-0.58-3.18-0.54c-0.7,0-1.32,0.01-1.85,0.02c-0.54,0.01-0.91,0.04-1.11,0.07
		h-0.01v9.09c0.38,0.03,0.73,0.04,1.05,0.04h1.44c1.06,0,2.11-0.17,3.12-0.5c0.86-0.26,1.64-0.75,2.22-1.44
		c0.57-0.67,0.85-1.6,0.85-2.79c0.02-0.84-0.2-1.68-0.64-2.4C28.43,23.63,27.76,23.09,26.99,22.78z"/>
	<linearGradient id="SVGID_2_" gradientUnits="userSpaceOnUse" x1="1.443" y1="2.7069" x2="63.3135" y2="62.0594">
		<stop  offset="0" style="stop-color:#DCDCDC"/>
		<stop  offset="0.1291" style="stop-color:#D5D5D5;stop-opacity:0.9006"/>
		<stop  offset="0.3161" style="stop-color:#C2C2C2;stop-opacity:0.7566"/>
		<stop  offset="0.5385" style="stop-color:#A2A2A2;stop-opacity:0.5854"/>
		<stop  offset="0.7858" style="stop-color:#777777;stop-opacity:0.3949"/>
		<stop  offset="1" style="stop-color:#4B4B4B;stop-opacity:0.23"/>
	</linearGradient>
	<path class="st1" d="M0,0v65h65V0H0z M33.84,32.35c-1.08,1.52-2.6,2.67-4.36,3.29c-1.83,0.68-3.87,0.91-6.11,0.91
		c-0.64,0-1.09-0.01-1.35-0.02c-0.26-0.02-0.65-0.02-1.18-0.02v8.7c0.03,0.19-0.1,0.36-0.29,0.39c0,0,0,0,0,0
		c-0.03,0.01-0.07,0.01-0.1,0h-5.19c-0.21,0-0.3-0.12-0.3-0.35V17.39c0-0.2,0.09-0.3,0.26-0.3c0.46,0,0.89,0,1.52-0.02
		c0.64-0.02,1.33-0.03,2.07-0.04l2.35-0.04c0.83-0.01,1.65-0.02,2.46-0.02c2.21,0,4.07,0.28,5.59,0.83
		c1.36,0.46,2.61,1.22,3.64,2.22c0.88,0.87,1.55,1.92,1.98,3.07c0.41,1.13,0.61,2.32,0.61,3.51C35.45,28.92,34.91,30.84,33.84,32.35
		z M52.97,42.9c-0.76,1.08-1.81,1.92-3.03,2.42c-1.33,0.58-2.96,0.87-4.91,0.87c-1.24,0.01-2.47-0.11-3.68-0.35
		c-0.96-0.18-1.89-0.47-2.77-0.87c-0.2-0.1-0.31-0.3-0.31-0.52v-4.71c-0.01-0.09,0.03-0.19,0.11-0.24c0.08-0.04,0.17-0.04,0.24,0.02
		c1.04,0.62,2.18,1.06,3.36,1.33c1.04,0.26,2.11,0.4,3.18,0.41c1.02,0,1.76-0.13,2.25-0.39c0.44-0.2,0.72-0.65,0.72-1.13
		c0-0.38-0.22-0.74-0.65-1.09c-0.44-0.35-1.32-0.77-2.66-1.26c-1.37-0.48-2.67-1.14-3.86-1.96c-0.85-0.59-1.55-1.37-2.05-2.29
		c-0.43-0.86-0.65-1.81-0.64-2.77c0-1.16,0.31-2.29,0.92-3.28c0.69-1.08,1.67-1.95,2.83-2.49c1.28-0.64,2.88-0.96,4.8-0.96
		c1.12-0.01,2.25,0.07,3.36,0.24c0.8,0.1,1.59,0.32,2.34,0.64c0.12,0.03,0.22,0.12,0.26,0.24c0.03,0.11,0.04,0.22,0.04,0.33v4.4
		c0.01,0.1-0.04,0.2-0.13,0.26c-0.12,0.06-0.26,0.06-0.38,0c-0.82-0.42-1.69-0.73-2.59-0.92c-0.99-0.23-2.01-0.35-3.03-0.35
		c-0.55-0.01-1.1,0.05-1.63,0.2c-0.34,0.08-0.64,0.27-0.85,0.54c-0.14,0.22-0.22,0.48-0.22,0.74c0.01,0.25,0.1,0.5,0.26,0.7
		c0.25,0.3,0.57,0.54,0.92,0.72c0.62,0.33,1.26,0.63,1.92,0.89c1.46,0.49,2.86,1.16,4.16,1.98c0.89,0.56,1.62,1.33,2.14,2.25
		c0.43,0.87,0.65,1.83,0.64,2.79C54.04,40.58,53.67,41.84,52.97,42.9z"/>
</g>
</svg>
