<?xml version="1.0" encoding="utf-8"?>
<!-- Generator: Adobe Illustrator 23.0.1, SVG Export Plug-In . SVG Version: 6.00 Build 0)  -->
<svg version="1.1" id="Layer_1" xmlns="http://www.w3.org/2000/svg" xmlns:xlink="http://www.w3.org/1999/xlink" x="0px" y="0px"
	 viewBox="0 0 65 65" style="enable-background:new 0 0 65 65;" xml:space="preserve">
<style type="text/css">
	.st0{fill:url(#SVGID_1_);}
</style>
<linearGradient id="SVGID_1_" gradientUnits="userSpaceOnUse" x1="11.226" y1="-2.2856" x2="66.8142" y2="62.6556">
	<stop  offset="0" style="stop-color:#DCDCDC"/>
	<stop  offset="0.1291" style="stop-color:#D5D5D5;stop-opacity:0.9006"/>
	<stop  offset="0.3161" style="stop-color:#C2C2C2;stop-opacity:0.7566"/>
	<stop  offset="0.5385" style="stop-color:#A2A2A2;stop-opacity:0.5854"/>
	<stop  offset="0.7858" style="stop-color:#777777;stop-opacity:0.3949"/>
	<stop  offset="1" style="stop-color:#4B4B4B;stop-opacity:0.23"/>
</linearGradient>
<path class="st0" d="M64.08,40.87c-0.04-0.11-0.09-0.22-0.15-0.32c-0.38-0.71-1.3-0.93-2.75-0.63c-4.52,0.92-6.26,0.36-6.9-0.05
	c3.67-5.55,6.68-12.25,8.31-18.5c0.74-2.85,2.18-9.54,0.33-12.81c-0.12-0.22-0.26-0.44-0.41-0.64C58.98,3.46,53.81,1.07,47.55,1
	c-4.08-0.04-7.57,0.94-8.51,1.3c-0.47-0.09-0.94-0.16-1.41-0.22c-1.18-0.21-2.38-0.33-3.58-0.35c-3.23-0.05-6.02,0.72-8.33,2.28
	C23.37,3.14,12.64-0.45,5.99,4.22C2.28,6.83,0.56,11.49,0.9,18.07c0.11,2.22,1.38,9.03,3.39,15.56c1.26,4.08,2.56,7.32,3.92,9.7
	c1.51,2.69,3.08,4.32,4.68,4.85c1.22,0.4,3.09,0.39,5.08-1.97c2.19-2.61,4.34-4.94,5.31-5.98c1.19,0.64,2.48,0.98,3.8,1.02
	c0,0,0,0.01,0,0.01c-0.23,0.27-0.46,0.55-0.68,0.83c-0.93,1.17-1.12,1.41-4.1,2.02c-0.85,0.17-3.1,0.63-3.13,2.2
	c-0.01,0.33,0.09,0.63,0.25,0.89c0.62,1.15,2.52,1.65,2.77,1.71c3.65,0.9,6.84,0.25,9.21-1.84c-0.05,6.04,0.21,11.96,0.94,13.78
	c0.6,1.5,2.08,5.16,6.74,5.16c0.68,0,1.44-0.08,2.27-0.25c4.87-1.03,6.98-3.17,7.8-7.87c0.41-2.36,1.1-7.79,1.47-11.11
	c0.05-0.19,0.1-0.33,0.16-0.37c0,0,0.19-0.13,1.17,0.08c0.04,0.01,0.08,0.01,0.12,0.02l0.69,0.06l0.04,0
	c2.31,0.1,5.22-0.39,6.91-1.17C61.48,44.59,64.65,42.6,64.08,40.87L64.08,40.87z M6.2,33.17c-2.03-6.6-3.22-13.23-3.31-15.09
	C2.59,12.19,4.03,8.1,7.15,5.91c5.02-3.52,13.22-1.46,16.68-0.35c-0.01,0.01-0.02,0.02-0.03,0.03c-5.53,5.54-5.4,14.99-5.38,15.57
	c0,0.22,0.02,0.54,0.04,0.97c0.1,1.59,0.27,4.55-0.2,7.9c-0.44,3.12,0.53,6.17,2.66,8.37c0.22,0.23,0.45,0.44,0.69,0.64
	c-0.95,1.01-3.01,3.23-5.2,5.84c-1.55,1.85-2.62,1.49-2.97,1.38c-1.07-0.35-2.22-1.59-3.38-3.58C8.75,40.41,7.43,37.18,6.2,33.17
	L6.2,33.17z M22.61,46.94c-0.47-0.12-0.89-0.31-1.18-0.48c0.24-0.11,0.65-0.24,1.32-0.38c3.51-0.72,4.05-1.22,5.23-2.71
	c0.27-0.34,0.58-0.73,1-1.2c0.09-0.1,0.16-0.22,0.2-0.35c0.47-0.41,0.74-0.3,1.19-0.11c0.43,0.17,0.84,0.7,1.01,1.29
	c0.08,0.28,0.17,0.8-0.12,1.2C28.79,47.63,25.19,47.58,22.61,46.94z M28.33,36.14l-0.14,0.38c-0.36,0.97-0.7,1.86-0.91,2.72
	c-1.82-0.01-3.6-0.78-4.95-2.17c-1.72-1.77-2.49-4.24-2.14-6.77c0.5-3.54,0.31-6.63,0.22-8.28c-0.01-0.23-0.03-0.44-0.03-0.6
	c0.81-0.71,4.55-2.7,7.22-2.09c1.22,0.28,1.96,1.1,2.27,2.51c1.6,7.32,0.21,10.37-0.9,12.83C28.73,35.17,28.51,35.65,28.33,36.14
	L28.33,36.14z M48.44,48.53c-0.05,0.48-0.1,1.02-0.17,1.61l-0.4,1.19c-0.03,0.09-0.05,0.19-0.05,0.29
	c-0.02,1.29-0.15,1.76-0.31,2.35c-0.17,0.62-0.37,1.32-0.49,2.86c-0.3,3.83-2.4,6.03-6.6,6.92c-4.14,0.88-4.87-1.35-5.52-3.31
	c-0.07-0.21-0.14-0.41-0.21-0.61c-0.59-1.59-0.52-3.82-0.43-6.92c0.05-1.52-0.07-5.15-0.9-7.17c0.01-0.79,0.03-1.6,0.05-2.42
	c0-0.1-0.01-0.21-0.04-0.3c-0.03-0.19-0.07-0.38-0.12-0.56c-0.33-1.16-1.15-2.13-2.13-2.53c-0.39-0.16-1.1-0.45-1.96-0.24
	c0.18-0.75,0.5-1.59,0.84-2.5l0.14-0.38c0.16-0.43,0.37-0.88,0.58-1.36c1.17-2.57,2.76-6.08,1.03-14.02
	c-0.65-2.97-2.81-4.43-6.1-4.09c-1.97,0.2-3.77,0.99-4.67,1.44c-0.18,0.09-0.36,0.18-0.53,0.28c0.25-3,1.2-8.6,4.74-12.14
	c0.26-0.26,0.54-0.51,0.83-0.75c0.14-0.03,0.28-0.09,0.4-0.17c2.06-1.55,4.63-2.3,7.65-2.25c1.12,0.02,2.19,0.09,3.21,0.22
	c5.3,0.96,8.86,3.92,11.02,6.45c2.22,2.61,3.43,5.23,3.91,6.65c-3.61-0.36-6.07,0.34-7.32,2.11c-2.71,3.84,1.48,11.3,3.5,14.89
	c0.37,0.66,0.69,1.22,0.79,1.47c0.66,1.58,1.51,2.63,2.13,3.4c0.19,0.24,0.37,0.46,0.51,0.66c-1.09,0.31-3.06,1.04-2.88,4.65
	c-0.03,0.42-0.12,1.21-0.23,2.21C48.59,47.01,48.52,47.7,48.44,48.53L48.44,48.53z M50.87,44.14c-0.11-2.25,0.74-2.49,1.63-2.74
	c0.12-0.03,0.25-0.07,0.37-0.11c0.12,0.1,0.24,0.19,0.37,0.28c1.56,1.02,4.32,1.14,8.21,0.36c-0.55,0.48-1.42,1.08-2.6,1.63
	c-1.12,0.52-2.99,0.9-4.77,0.98C52.11,44.64,51.11,44.33,50.87,44.14L50.87,44.14z M52.43,19.03c-0.02,0.95-0.15,1.81-0.29,2.71
	c-0.15,0.97-0.31,1.97-0.35,3.19c-0.04,1.18,0.11,2.41,0.25,3.6c0.29,2.4,0.59,4.88-0.57,7.32c-0.19-0.34-0.36-0.69-0.51-1.04
	c-0.14-0.35-0.46-0.9-0.89-1.67c-1.68-2.99-5.62-9.99-3.6-12.85C47.52,18.81,50.14,18.75,52.43,19.03L52.43,19.03z M53.05,38.02
	c-0.08-0.1-0.15-0.19-0.23-0.29l-0.1-0.12c1.98-3.25,1.6-6.46,1.25-9.31c-0.14-1.17-0.28-2.27-0.24-3.31
	c0.04-1.1,0.18-2.04,0.32-2.96c0.17-1.12,0.35-2.29,0.3-3.66c0.04-0.14,0.05-0.31,0.03-0.52c-0.12-1.31-1.64-5.25-4.72-8.81
	c-1.66-1.92-4.07-4.05-7.34-5.52c1.43-0.29,3.37-0.55,5.53-0.5c5.6,0.12,10.04,2.2,13.18,6.18c0.07,0.09,0.13,0.18,0.18,0.27
	C63.19,13.15,60.46,26.47,53.05,38.02L53.05,38.02z M28.97,21.46c-0.07,0.49-0.84,1.14-1.7,1.14c-0.07,0-0.15-0.01-0.22-0.02
	c-0.51-0.07-1.03-0.39-1.38-0.85c-0.13-0.16-0.33-0.48-0.29-0.77c0.02-0.11,0.07-0.27,0.25-0.4c0.32-0.24,0.96-0.33,1.67-0.23
	C28.16,20.44,29.06,20.85,28.97,21.46L28.97,21.46z M50.63,20.34c0.03,0.21-0.13,0.54-0.42,0.84c-0.19,0.19-0.58,0.53-1.11,0.6
	c-0.07,0.01-0.14,0.01-0.2,0.01c-0.8,0-1.48-0.63-1.53-1.01c-0.07-0.48,0.72-0.84,1.53-0.95C49.71,19.73,50.57,19.87,50.63,20.34
	L50.63,20.34z"/>
</svg>
