<?xml version="1.0" encoding="utf-8"?>
<!-- Generator: Adobe Illustrator 23.0.1, SVG Export Plug-In . SVG Version: 6.00 Build 0)  -->
<svg version="1.1" id="Layer_1" xmlns="http://www.w3.org/2000/svg" xmlns:xlink="http://www.w3.org/1999/xlink" x="0px" y="0px"
	 viewBox="0 0 65 65" style="enable-background:new 0 0 65 65;" xml:space="preserve">
<style type="text/css">
	.st0{fill:url(#SVGID_1_);}
	.st1{fill:url(#SVGID_2_);}
	.st2{fill:url(#SVGID_3_);}
</style>
<g>
	<linearGradient id="SVGID_1_" gradientUnits="userSpaceOnUse" x1="-0.3293" y1="0.2084" x2="65.8472" y2="65.326">
		<stop  offset="0" style="stop-color:#DCDCDC"/>
		<stop  offset="0.1291" style="stop-color:#D5D5D5;stop-opacity:0.9006"/>
		<stop  offset="0.3161" style="stop-color:#C2C2C2;stop-opacity:0.7566"/>
		<stop  offset="0.5385" style="stop-color:#A2A2A2;stop-opacity:0.5854"/>
		<stop  offset="0.7858" style="stop-color:#777777;stop-opacity:0.3949"/>
		<stop  offset="1" style="stop-color:#4B4B4B;stop-opacity:0.23"/>
	</linearGradient>
	<path class="st0" d="M65.05,31.24c-0.1-2-0.43-3.95-1.12-5.84c-1.3-3.54-4.25-6.94-9.6-6.71c-1.81,0.07-3.62-0.01-5.43,0.02
		c-0.52,0.01-0.7-0.1-0.69-0.67c0.03-2.5,0.02-4.99,0.01-7.49c0-1.69-0.46-3.25-1.4-4.66c-1.47-2.19-3.58-3.49-6.02-4.32
		c-3.6-1.23-7.31-1.35-11.06-1.04c-2.55,0.21-5.02,0.77-7.27,2.03c-2.88,1.6-4.92,3.86-5.16,7.28c-0.16,2.35-0.05,4.71-0.07,7.07
		c0,0.41,0.26,0.35,0.5,0.35c1.28,0,2.56,0,3.85,0c3.05,0,6.09,0,9.14,0.01c0.2,0,0.47-0.13,0.6,0.17c0.3,0.7-0.06,1.25-0.83,1.25
		c-6.64,0-13.28,0-19.92,0c-3.57,0-6.21,1.61-8.04,4.62c-1.25,2.05-1.81,4.34-2.03,6.7c-0.31,3.4-0.19,6.77,1,10.02
		c1.67,4.57,4.84,6.79,9.67,6.79c1.83,0,3.66,0.02,5.5-0.01c0.46-0.01,0.58,0.13,0.57,0.58c-0.02,2.34,0.03,4.67-0.02,7.01
		c-0.08,3.62,1.57,6.27,4.55,8.15c2.87,1.81,6.1,2.38,9.42,2.53c0.92,0.14,1.85-0.07,2.76,0.11c0.14,0,0.27,0,0.41,0
		c0.6-0.15,1.22-0.09,1.83-0.13c3.19-0.2,6.12-1.16,8.66-3.11c1.99-1.52,3.21-3.54,3.49-6.08c0.06-0.57,0.11-1.14,0.11-1.71
		c0-1.63,0-3.25,0-4.88c0-1.1-0.11-1.2-1.23-1.21c-0.21,0-0.41,0-0.62,0c-3.71,0-7.42,0-11.13,0c-0.25,0-0.5,0.01-0.75-0.03
		c-0.27-0.04-0.39-0.21-0.4-0.47c-0.01-0.27,0.06-0.5,0.37-0.56c0.27-0.05,0.55-0.04,0.82-0.04c6.64,0,13.28,0,19.92,0
		c0.5,0,1-0.02,1.5-0.13c3.32-0.77,5.5-2.87,6.86-5.9c0.96-2.14,1.35-4.41,1.29-6.75C65.07,33.22,65.15,32.23,65.05,31.24z
		 M17.24,38.69c0,1.58-0.03,3.16,0.01,4.74c0.02,0.56-0.19,0.62-0.66,0.61c-1.99-0.02-3.99-0.03-5.98,0
		c-2.33,0.03-4.09-0.98-5.38-2.87c-1.08-1.59-1.6-3.38-1.84-5.25c-0.41-3.17-0.33-6.3,0.74-9.35c0.43-1.22,1.06-2.33,1.97-3.26
		c1.16-1.19,2.58-1.79,4.24-1.79c3.82-0.01,7.65,0,11.47,0c3.89,0,7.79-0.01,11.68,0.01c0.5,0,0.65-0.1,0.64-0.63
		c-0.04-1.92-0.04-3.85,0-5.77c0.01-0.58-0.19-0.65-0.69-0.65c-4.24,0.02-8.47,0-12.71,0.02c-0.52,0-0.71-0.1-0.68-0.66
		c0.05-0.98,0.05-1.97,0.01-2.95c-0.09-2.14,0.85-3.75,2.48-5.01c1.69-1.31,3.66-1.96,5.73-2.28c3.84-0.61,7.66-0.56,11.41,0.6
		c1.55,0.48,2.96,1.22,4.09,2.41C44.84,7.7,45.4,9,45.4,10.55c-0.02,5.47,0,10.95-0.01,16.42c0,2.59-1.81,4.39-4.41,4.4
		c-5.47,0.01-10.95,0-16.42,0C20.32,31.38,17.26,34.44,17.24,38.69z M61.32,39c-0.35,1-0.85,1.92-1.52,2.74
		c-1.24,1.5-2.81,2.29-4.77,2.29c-3.8,0-7.6,0-11.4,0c-3.87,0-7.74,0.01-11.61-0.01c-0.5,0-0.7,0.07-0.69,0.65
		c0.04,1.95,0.03,3.89,0,5.84c-0.01,0.46,0.13,0.56,0.57,0.56c4.28-0.02,8.56,0,12.85-0.02c0.56,0,0.68,0.17,0.66,0.68
		c-0.04,0.98-0.05,1.97,0,2.95c0.09,2.14-0.87,3.74-2.49,5c-1.69,1.31-3.66,1.95-5.73,2.28c-3.82,0.6-7.62,0.55-11.34-0.61
		c-1.57-0.49-3-1.25-4.14-2.46c-1.05-1.11-1.62-2.4-1.61-3.95c0.02-5.43,0-10.85,0.01-16.28c0-2.72,1.79-4.49,4.53-4.49
		c5.43,0,10.85,0,16.28,0c4.31,0,7.32-3.03,7.33-7.35c0-1.6,0.01-3.21-0.01-4.81c0-0.37,0.07-0.51,0.48-0.51
		c2.22,0.02,4.44-0.02,6.66,0.02c1.91,0.04,3.41,0.94,4.56,2.43c1.3,1.68,1.89,3.64,2.15,5.7C62.48,32.82,62.39,35.95,61.32,39z"/>
	<linearGradient id="SVGID_2_" gradientUnits="userSpaceOnUse" x1="7.4548" y1="-7.7022" x2="73.6312" y2="57.4154">
		<stop  offset="0" style="stop-color:#DCDCDC"/>
		<stop  offset="0.1291" style="stop-color:#D5D5D5;stop-opacity:0.9006"/>
		<stop  offset="0.3161" style="stop-color:#C2C2C2;stop-opacity:0.7566"/>
		<stop  offset="0.5385" style="stop-color:#A2A2A2;stop-opacity:0.5854"/>
		<stop  offset="0.7858" style="stop-color:#777777;stop-opacity:0.3949"/>
		<stop  offset="1" style="stop-color:#4B4B4B;stop-opacity:0.23"/>
	</linearGradient>
	<path class="st1" d="M28.5,10.25c0,1.57-1.28,2.85-2.83,2.82c-1.53-0.03-2.78-1.3-2.79-2.81c0-1.55,1.28-2.81,2.85-2.8
		C27.28,7.46,28.49,8.69,28.5,10.25z"/>
	<linearGradient id="SVGID_3_" gradientUnits="userSpaceOnUse" x1="-8.1377" y1="8.1438" x2="58.0387" y2="73.2614">
		<stop  offset="0" style="stop-color:#DCDCDC"/>
		<stop  offset="0.1291" style="stop-color:#D5D5D5;stop-opacity:0.9006"/>
		<stop  offset="0.3161" style="stop-color:#C2C2C2;stop-opacity:0.7566"/>
		<stop  offset="0.5385" style="stop-color:#A2A2A2;stop-opacity:0.5854"/>
		<stop  offset="0.7858" style="stop-color:#777777;stop-opacity:0.3949"/>
		<stop  offset="1" style="stop-color:#4B4B4B;stop-opacity:0.23"/>
	</linearGradient>
	<path class="st2" d="M39.74,58.08c-1.55-0.01-2.77-1.24-2.77-2.79c0-1.57,1.28-2.85,2.83-2.82c1.53,0.02,2.78,1.29,2.79,2.81
		C42.59,56.83,41.31,58.09,39.74,58.08z"/>
</g>
</svg>
