<?xml version="1.0" encoding="utf-8"?>
<!-- Generator: Adobe Illustrator 23.0.1, SVG Export Plug-In . SVG Version: 6.00 Build 0)  -->
<svg version="1.1" id="Layer_1" xmlns="http://www.w3.org/2000/svg" xmlns:xlink="http://www.w3.org/1999/xlink" x="0px" y="0px"
	 viewBox="0 0 65 65" style="enable-background:new 0 0 65 65;" xml:space="preserve">
<style type="text/css">
	.st0{fill:url(#SVGID_1_);}
	.st1{fill:url(#SVGID_2_);}
</style>
<g>
	<linearGradient id="SVGID_1_" gradientUnits="userSpaceOnUse" x1="3.5087" y1="5.8103" x2="69.8616" y2="66.8692">
		<stop  offset="0" style="stop-color:#DCDCDC"/>
		<stop  offset="0.1291" style="stop-color:#D5D5D5;stop-opacity:0.9006"/>
		<stop  offset="0.3161" style="stop-color:#C2C2C2;stop-opacity:0.7566"/>
		<stop  offset="0.5385" style="stop-color:#A2A2A2;stop-opacity:0.5854"/>
		<stop  offset="0.7858" style="stop-color:#777777;stop-opacity:0.3949"/>
		<stop  offset="1" style="stop-color:#4B4B4B;stop-opacity:0.23"/>
	</linearGradient>
	<path class="st0" d="M62.89,28.52c-1.3-1.7-3.01-2.9-4.88-3.9c-2.06-1.11-4.24-1.93-6.49-2.57c-0.36-0.1-0.46-0.23-0.36-0.63
		c0.49-2,0.83-4.03,0.97-6.09c0.16-2.29,0.03-4.53-0.76-6.69c-0.63-1.73-1.72-3.1-3.44-3.88c-0.43-0.19-0.88-0.32-1.32-0.48
		c-0.91,0-1.83,0-2.74,0c-0.74,0.09-1.46,0.23-2.15,0.5c-1.03,0.4-2.02,0.86-2.96,1.43c-2.11,1.27-4,2.83-5.8,4.5
		c-0.27,0.25-0.44,0.26-0.71,0c-1.32-1.24-2.69-2.42-4.19-3.45c-2.06-1.41-4.18-2.68-6.73-2.99c-0.91,0-1.83,0-2.74,0
		c-0.05,0.08-0.14,0.08-0.22,0.11c-1.72,0.42-3.01,1.41-3.91,2.93c-1.06,1.78-1.37,3.76-1.45,5.79c-0.1,2.84,0.37,5.62,1.04,8.37
		c0.09,0.37-0.01,0.48-0.32,0.57c-1.24,0.34-2.45,0.76-3.64,1.24c-2.78,1.13-5.38,2.52-7.44,4.79c-2.15,2.38-2.42,5.51-0.61,8.16
		c1.21,1.78,2.9,3.01,4.74,4.05c2.18,1.22,4.49,2.11,6.89,2.79c0.35,0.1,0.47,0.21,0.37,0.62c-0.73,3.13-1.27,6.29-0.94,9.53
		c0.17,1.7,0.55,3.34,1.49,4.79c1.04,1.61,2.5,2.62,4.42,2.82c2.3,0.24,4.41-0.43,6.42-1.5c2.54-1.36,4.76-3.15,6.83-5.13
		c0.27-0.26,0.41-0.26,0.68,0c1.65,1.58,3.4,3.05,5.35,4.26c2.25,1.39,4.59,2.5,7.35,2.4c1.97-0.08,3.52-0.89,4.68-2.43
		c1.43-1.9,1.78-4.13,1.87-6.42c0.11-2.82-0.36-5.59-1.03-8.32c-0.1-0.42,0.03-0.53,0.37-0.62c1.22-0.34,2.42-0.75,3.59-1.23
		c2.75-1.12,5.33-2.49,7.36-4.73C64.81,34.56,64.98,31.26,62.89,28.52z M34.72,13.04c2.3-2.19,4.73-4.19,7.7-5.43
		C43.3,7.25,44.21,7.03,45.18,7c1.59-0.04,2.68,0.68,3.37,2.07c0.49,0.98,0.72,2.04,0.8,3.12c0.04,0.55,0.16,1.11,0.11,1.48
		c-0.07,2.58-0.43,4.92-1,7.24c-0.07,0.29-0.18,0.3-0.42,0.25c-1.91-0.42-3.84-0.73-5.78-0.99c-0.67-0.09-1.34-0.17-2.01-0.22
		c-0.27-0.02-0.42-0.14-0.57-0.34c-1.54-2.12-3.14-4.19-4.93-6.11C34.6,13.33,34.53,13.23,34.72,13.04z M19.57,35.84
		c1.16,2.17,2.32,4.23,3.65,6.32c-0.74,0.06-1.35-0.11-1.95-0.21c-1.1-0.16-2.18-0.4-3.28-0.6c-0.31-0.06-0.39-0.18-0.29-0.5
		C18.25,39.19,18.85,37.55,19.57,35.84z M19.57,29.28c-0.74-1.72-1.35-3.41-1.91-5.12c-0.11-0.34,0.15-0.33,0.31-0.36
		c1.36-0.25,2.71-0.5,4.08-0.72c0.35-0.05,0.83-0.32,1.03-0.01c0.14,0.21-0.28,0.6-0.46,0.89c-0.99,1.59-1.9,3.23-2.79,4.87
		C19.75,28.97,19.68,29.09,19.57,29.28z M21.19,32.88c-0.11-0.22-0.11-0.39,0-0.61c1.59-3.26,3.4-6.39,5.42-9.4
		c0.13-0.2,0.28-0.3,0.53-0.32c3.01-0.24,6.01-0.26,9.02-0.1c0.62,0.03,1.25,0.01,1.87,0.1c0.27,0.04,0.42,0.13,0.57,0.35
		c2.01,3,3.81,6.11,5.39,9.36c0.12,0.24,0.11,0.42,0,0.66c-1.58,3.24-3.39,6.36-5.39,9.36c-0.14,0.22-0.3,0.32-0.57,0.34
		c-1.82,0.16-3.65,0.2-5.47,0.19c-1.81,0.01-3.62-0.03-5.42-0.19c-0.25-0.02-0.39-0.12-0.53-0.32
		C24.59,39.27,22.78,36.14,21.19,32.88z M45.61,35.84c0.75,1.75,1.36,3.44,1.92,5.15c0.1,0.3-0.11,0.31-0.27,0.34
		c-1.14,0.22-2.28,0.43-3.42,0.63c-0.61,0.1-1.22,0.17-1.91,0.27C43.26,40.13,44.45,38.04,45.61,35.84z M41.93,22.94
		c1.16,0.09,2.23,0.29,3.3,0.47c0.68,0.12,1.35,0.26,2.03,0.39c0.23,0.04,0.36,0.11,0.26,0.4c-0.56,1.69-1.16,3.37-1.91,5.11
		C44.44,27.09,43.26,25.01,41.93,22.94z M32.3,15.53c0.17-0.2,0.3-0.34,0.55-0.06c1.15,1.33,2.3,2.65,3.42,4.17
		c-2.48-0.04-4.85-0.04-7.3,0c0.47-0.75,1.01-1.36,1.53-2C31.07,16.93,31.69,16.23,32.3,15.53z M16.47,9.44
		c0.67-1.65,1.81-2.44,4.09-2.43c1.25,0.04,2.82,0.77,4.33,1.66c2.02,1.19,3.82,2.67,5.5,4.3c0.17,0.16,0.3,0.27,0.07,0.52
		c-1.74,1.85-3.33,3.83-4.77,5.92c-0.37,0.53-0.84,0.56-1.34,0.61c-2.35,0.24-4.68,0.59-6.99,1.12c-0.4,0.09-0.58,0.03-0.68-0.41
		c-0.54-2.39-0.96-4.8-0.92-7.26C15.78,12.09,15.95,10.73,16.47,9.44z M15.02,40.18c-0.06,0.2-0.08,0.42-0.43,0.31
		c-2.74-0.82-5.41-1.82-7.8-3.44c-1-0.68-1.9-1.46-2.57-2.49c-0.39-0.61-0.62-1.27-0.64-1.91c0.02-1.18,0.52-2.07,1.22-2.85
		c1.38-1.54,3.14-2.54,5-3.39c1.51-0.69,3.06-1.25,4.65-1.72c0.33-0.1,0.47-0.07,0.58,0.28c0.78,2.5,1.74,4.93,2.83,7.31
		c0.09,0.21,0.09,0.37-0.01,0.57C16.77,35.25,15.81,37.68,15.02,40.18z M30.46,52.11c-2.3,2.2-4.74,4.19-7.71,5.43
		c-0.83,0.34-1.69,0.56-2.6,0.61c-1.99,0.11-3.1-0.98-3.72-2.54c-0.54-1.38-0.64-2.82-0.7-4.22c0.07-2.46,0.42-4.83,1-7.16
		c0.07-0.28,0.17-0.3,0.42-0.24c2.17,0.49,4.37,0.82,6.58,1.1c0.3,0.04,0.61,0.12,0.9,0.09c0.57-0.05,0.83,0.31,1.11,0.7
		c1.44,2.01,2.98,3.93,4.65,5.75C30.56,51.79,30.68,51.89,30.46,52.11z M32.85,49.66c-0.16,0.19-0.28,0.27-0.48,0.04
		c-1.16-1.33-2.32-2.67-3.42-4.17c2.46,0,4.84,0,7.27,0c-0.46,0.73-1.01,1.35-1.52,1.98C34.1,48.24,33.46,48.94,32.85,49.66z
		 M48.93,55.11c-0.84,2.58-2.53,3.51-5.18,2.85c-1.83-0.46-3.44-1.39-4.96-2.46c-1.41-0.99-2.73-2.1-3.97-3.3
		c-0.23-0.22-0.26-0.34-0.03-0.6c1.65-1.77,3.17-3.65,4.55-5.63c0.41-0.59,0.87-0.79,1.52-0.85c2.34-0.2,4.65-0.58,6.94-1.09
		c0.41-0.09,0.61-0.05,0.71,0.43c0.5,2.26,0.87,4.54,0.93,6.97C49.39,52.6,49.33,53.88,48.93,55.11z M60.3,35.42
		c-1.37,1.5-3.11,2.47-4.93,3.32c-1.52,0.71-3.09,1.25-4.7,1.73c-0.31,0.09-0.42,0.02-0.51-0.26c-0.78-2.52-1.75-4.96-2.85-7.36
		c-0.09-0.21-0.08-0.37,0.01-0.57c1.08-2.38,2.05-4.81,2.83-7.31c0.07-0.21,0.09-0.41,0.44-0.31c2.74,0.82,5.41,1.82,7.8,3.44
		c1,0.68,1.9,1.46,2.56,2.49c0.39,0.61,0.62,1.27,0.63,1.91C61.58,33.72,61.03,34.62,60.3,35.42z"/>
	<linearGradient id="SVGID_2_" gradientUnits="userSpaceOnUse" x1="3.5094" y1="5.8096" x2="69.8624" y2="66.8684">
		<stop  offset="0" style="stop-color:#DCDCDC"/>
		<stop  offset="0.1291" style="stop-color:#D5D5D5;stop-opacity:0.9006"/>
		<stop  offset="0.3161" style="stop-color:#C2C2C2;stop-opacity:0.7566"/>
		<stop  offset="0.5385" style="stop-color:#A2A2A2;stop-opacity:0.5854"/>
		<stop  offset="0.7858" style="stop-color:#777777;stop-opacity:0.3949"/>
		<stop  offset="1" style="stop-color:#4B4B4B;stop-opacity:0.23"/>
	</linearGradient>
	<path class="st1" d="M32.6,38.22c3.13,0,5.66-2.51,5.67-5.63c0.01-3.14-2.52-5.67-5.68-5.67c-3.13,0-5.66,2.51-5.67,5.62
		C26.91,35.69,29.45,38.22,32.6,38.22z"/>
</g>
</svg>
