<?xml version="1.0" encoding="utf-8"?>
<!-- Generator: Adobe Illustrator 23.0.1, SVG Export Plug-In . SVG Version: 6.00 Build 0)  -->
<svg version="1.1" id="Layer_1" xmlns="http://www.w3.org/2000/svg" xmlns:xlink="http://www.w3.org/1999/xlink" x="0px" y="0px"
	 viewBox="0 0 65 65" style="enable-background:new 0 0 65 65;" xml:space="preserve">
<style type="text/css">
	.st0{fill:url(#SVGID_1_);}
</style>
<linearGradient id="SVGID_1_" gradientUnits="userSpaceOnUse" x1="-0.1058" y1="11.5708" x2="74.7178" y2="74.8649">
	<stop  offset="0" style="stop-color:#DCDCDC"/>
	<stop  offset="0.1291" style="stop-color:#D5D5D5;stop-opacity:0.9006"/>
	<stop  offset="0.3161" style="stop-color:#C2C2C2;stop-opacity:0.7566"/>
	<stop  offset="0.5385" style="stop-color:#A2A2A2;stop-opacity:0.5854"/>
	<stop  offset="0.7858" style="stop-color:#777777;stop-opacity:0.3949"/>
	<stop  offset="1" style="stop-color:#4B4B4B;stop-opacity:0.23"/>
</linearGradient>
<path class="st0" d="M46.04,44.74c2.4-0.25,4.22-2.32,4.14-4.8c-0.08-2.48-2.15-4.47-4.63-4.47h-0.17c-2.56,0.08-4.55,2.23-4.47,4.8
	c0.08,1.24,0.58,2.32,1.32,3.06c-2.81,5.54-7.11,9.6-13.57,12.99c-4.38,2.32-8.93,3.14-13.48,2.56c-3.72-0.5-6.62-2.15-8.44-4.88
	c-2.65-4.05-2.89-8.44-0.66-12.82c1.57-3.14,4.05-5.46,5.62-6.62c-0.33-1.08-0.83-2.9-1.08-4.22C-1.36,39.03-0.12,50.78,3.52,56.32
	c2.73,4.14,8.27,6.7,14.39,6.7c1.65,0,3.31-0.17,4.96-0.58C33.47,60.38,41.49,54.09,46.04,44.74L46.04,44.74z M60.6,34.49
	c-6.29-7.36-15.55-11.42-26.14-11.42h-1.32c-0.74-1.49-2.32-2.48-4.05-2.48h-0.17c-2.56,0.08-4.55,2.23-4.47,4.8
	c0.08,2.48,2.15,4.47,4.63,4.47h0.17c1.82-0.08,3.39-1.24,4.05-2.81h1.49c6.29,0,12.24,1.82,17.62,5.38
	c4.14,2.73,7.11,6.29,8.77,10.59c1.41,3.47,1.32,6.87-0.17,9.76c-2.32,4.38-6.2,6.78-11.33,6.78c-3.31,0-6.45-0.99-8.11-1.74
	c-0.91,0.83-2.56,2.15-3.72,2.98c3.56,1.65,7.2,2.56,10.67,2.56c7.94,0,13.81-4.38,16.05-8.77C66.97,49.79,66.8,41.52,60.6,34.49
	L60.6,34.49z M18.58,46.15c0.08,2.48,2.15,4.47,4.63,4.47h0.17c2.56-0.08,4.55-2.23,4.47-4.8c-0.08-2.48-2.15-4.47-4.63-4.47h-0.17
	c-0.17,0-0.41,0-0.58,0.08c-3.39-5.62-4.8-11.75-4.3-18.36c0.33-4.96,1.99-9.26,4.88-12.82c2.4-3.06,7.03-4.55,10.17-4.63
	c8.77-0.17,12.49,10.75,12.74,15.14c1.08,0.25,2.9,0.83,4.14,1.24C49.1,8.59,40.83,1.65,32.89,1.65c-7.44,0-14.31,5.38-17.04,13.32
	c-3.8,10.59-1.32,20.76,3.31,28.79C18.74,44.33,18.49,45.24,18.58,46.15L18.58,46.15z"/>
</svg>
