<?xml version="1.0" encoding="utf-8"?>
<!-- Generator: Adobe Illustrator 23.0.1, SVG Export Plug-In . SVG Version: 6.00 Build 0)  -->
<svg version="1.1" id="Layer_1" xmlns="http://www.w3.org/2000/svg" xmlns:xlink="http://www.w3.org/1999/xlink" x="0px" y="0px"
	 viewBox="0 0 65 65" style="enable-background:new 0 0 65 65;" xml:space="preserve">
<style type="text/css">
	.st0{fill:url(#SVGID_1_);}
</style>
<linearGradient id="SVGID_1_" gradientUnits="userSpaceOnUse" x1="-5.946" y1="8.4189" x2="59.8813" y2="71.7282">
	<stop  offset="0" style="stop-color:#DCDCDC"/>
	<stop  offset="0.1291" style="stop-color:#D5D5D5;stop-opacity:0.9006"/>
	<stop  offset="0.3161" style="stop-color:#C2C2C2;stop-opacity:0.7566"/>
	<stop  offset="0.5385" style="stop-color:#A2A2A2;stop-opacity:0.5854"/>
	<stop  offset="0.7858" style="stop-color:#777777;stop-opacity:0.3949"/>
	<stop  offset="1" style="stop-color:#4B4B4B;stop-opacity:0.23"/>
</linearGradient>
<path class="st0" d="M55.96,37.12c-2.27,0.01-4.24,0.56-5.89,1.37c-0.61-1.21-1.22-2.26-1.32-3.05c-0.11-0.91-0.25-1.47-0.11-2.56
	c0.14-1.09,0.77-2.64,0.77-2.77c-0.01-0.11-0.14-0.67-1.45-0.69s-2.44,0.25-2.56,0.6c-0.13,0.34-0.38,1.13-0.55,1.94
	c-0.23,1.19-2.62,5.42-3.97,7.64c-0.44-0.86-0.83-1.63-0.9-2.23c-0.11-0.91-0.25-1.47-0.11-2.56c0.14-1.09,0.77-2.64,0.77-2.77
	c-0.01-0.11-0.14-0.67-1.45-0.69c-1.31-0.01-2.44,0.25-2.56,0.6c-0.13,0.34-0.27,1.16-0.55,1.94c-0.27,0.79-3.44,7.85-4.27,9.69
	c-0.42,0.94-0.79,1.69-1.05,2.2c-0.27,0.51-0.01,0.04-0.04,0.09c-0.23,0.43-0.36,0.67-0.36,0.67v0.01
	c-0.18,0.32-0.37,0.62-0.46,0.62c-0.06,0-0.19-0.85,0.03-2.02c0.47-2.45,1.61-6.27,1.6-6.41c0-0.06,0.22-0.74-0.74-1.08
	c-0.93-0.34-1.26,0.23-1.33,0.23c-0.08,0-0.14,0.2-0.14,0.2s1.03-4.3-1.97-4.3c-1.88,0-4.47,2.04-5.75,3.91
	c-0.81,0.44-2.54,1.38-4.37,2.39c-0.7,0.38-1.42,0.79-2.11,1.16l-0.14-0.15c-3.63-3.87-10.35-6.61-10.07-11.82
	c0.1-1.89,0.76-6.88,12.9-12.92c9.94-4.95,17.9-3.59,19.29-0.57c1.97,4.32-4.25,12.34-14.59,13.5c-3.94,0.44-6.01-1.08-6.53-1.65
	c-0.55-0.6-0.62-0.62-0.83-0.51c-0.33,0.18-0.13,0.71,0,1.03c0.3,0.8,1.57,2.22,3.73,2.93c1.89,0.62,6.51,0.96,12.1-1.19
	c6.26-2.43,11.15-9.15,9.71-14.78c-1.46-5.73-10.96-7.61-19.93-4.42c-5.35,1.9-11.13,4.88-15.3,8.77
	c-4.95,4.62-5.74,8.66-5.41,10.33c1.16,5.98,9.4,9.88,12.7,12.76c-0.17,0.09-0.32,0.18-0.46,0.25c-1.65,0.81-7.94,4.1-9.51,7.58
	c-1.78,3.94,0.28,6.77,1.65,7.15c4.24,1.18,8.58-0.94,10.93-4.43c2.34-3.49,2.06-8.02,0.98-10.09l-0.04-0.08l1.3-0.76
	c0.84-0.5,1.66-0.95,2.39-1.35c-0.41,1.1-0.7,2.41-0.85,4.32c-0.18,2.23,0.74,5.13,1.94,6.27c0.53,0.5,1.17,0.51,1.56,0.51
	c1.4,0,2.03-1.16,2.73-2.54c0.86-1.69,1.63-3.64,1.63-3.64s-0.95,5.29,1.65,5.29c0.95,0,1.9-1.23,2.34-1.87v0.01
	c0,0,0.03-0.04,0.08-0.13c0.05-0.08,0.1-0.16,0.15-0.24v-0.03c0.38-0.66,1.23-2.17,2.5-4.67c1.64-3.22,3.21-7.26,3.21-7.26
	s0.15,0.99,0.62,2.62c0.28,0.97,0.89,2.02,1.36,3.05c-0.38,0.53-0.61,0.84-0.61,0.84l0.01,0.01c-0.3,0.41-0.65,0.84-1,1.27
	c-1.3,1.55-2.84,3.31-3.05,3.82c-0.24,0.6-0.19,1.04,0.28,1.4c0.34,0.25,0.95,0.3,1.6,0.25c1.17-0.08,1.98-0.37,2.39-0.55
	c0.63-0.23,1.36-0.57,2.06-1.08c1.27-0.94,2.04-2.27,1.97-4.05c-0.04-0.98-0.36-1.94-0.75-2.86c0.11-0.17,0.23-0.33,0.34-0.51
	c2.01-2.93,3.56-6.16,3.56-6.16s0.15,0.99,0.62,2.62c0.24,0.83,0.72,1.73,1.16,2.62c-1.88,1.54-3.06,3.31-3.47,4.48
	c-0.75,2.16-0.17,3.14,0.94,3.36c0.5,0.1,1.21-0.13,1.74-0.36c0.66-0.22,1.46-0.58,2.2-1.13c1.27-0.94,2.49-2.25,2.43-4.01
	c-0.04-0.81-0.25-1.61-0.55-2.37c1.6-0.66,3.67-1.04,6.3-0.72c5.65,0.66,6.77,4.19,6.55,5.66c-0.22,1.47-1.4,2.29-1.79,2.54
	c-0.39,0.24-0.52,0.33-0.48,0.51c0.05,0.27,0.23,0.25,0.57,0.2c0.47-0.08,2.97-1.21,3.07-3.92C65.15,40.89,61.83,37.08,55.96,37.12
	L55.96,37.12z M12.38,51.81c-1.87,2.04-4.49,2.82-5.61,2.16c-1.21-0.7-0.74-3.71,1.56-5.88c1.4-1.32,3.21-2.54,4.41-3.29
	c0.27-0.17,0.67-0.41,1.16-0.7c0.08-0.05,0.13-0.08,0.13-0.08c0.09-0.05,0.19-0.11,0.29-0.18C15.16,46.94,14.35,49.66,12.38,51.81
	L12.38,51.81z M26.03,42.53c-0.65,1.59-2.02,5.66-2.84,5.43c-0.71-0.19-1.14-3.28-0.14-6.32c0.51-1.54,1.59-3.36,2.22-4.08
	c1.03-1.14,2.15-1.52,2.43-1.05C28.02,37.12,26.44,41.53,26.03,42.53z M37.29,47.91c-0.28,0.14-0.53,0.24-0.65,0.17
	c-0.09-0.05,0.11-0.24,0.11-0.24s1.41-1.51,1.97-2.21c0.32-0.41,0.7-0.88,1.1-1.41v0.15C39.83,46.19,38.08,47.41,37.29,47.91
	L37.29,47.91z M45.98,45.93c-0.2-0.15-0.18-0.62,0.51-2.09c0.27-0.58,0.88-1.56,1.93-2.49c0.13,0.38,0.2,0.75,0.19,1.09
	C48.59,44.72,46.97,45.57,45.98,45.93z"/>
</svg>
