<?xml version="1.0" encoding="utf-8"?>
<!-- Generator: Adobe Illustrator 23.0.1, SVG Export Plug-In . SVG Version: 6.00 Build 0)  -->
<svg version="1.1" id="Layer_1" xmlns="http://www.w3.org/2000/svg" xmlns:xlink="http://www.w3.org/1999/xlink" x="0px" y="0px"
	 viewBox="0 0 65 65" style="enable-background:new 0 0 65 65;" xml:space="preserve">
<style type="text/css">
	.st0{fill:url(#SVGID_1_);}
</style>
<linearGradient id="SVGID_1_" gradientUnits="userSpaceOnUse" x1="7.4658" y1="8.1519" x2="65.9285" y2="65.0139">
	<stop  offset="0" style="stop-color:#DCDCDC"/>
	<stop  offset="0.1291" style="stop-color:#D5D5D5;stop-opacity:0.9006"/>
	<stop  offset="0.3161" style="stop-color:#C2C2C2;stop-opacity:0.7566"/>
	<stop  offset="0.5385" style="stop-color:#A2A2A2;stop-opacity:0.5854"/>
	<stop  offset="0.7858" style="stop-color:#777777;stop-opacity:0.3949"/>
	<stop  offset="1" style="stop-color:#4B4B4B;stop-opacity:0.23"/>
</linearGradient>
<path class="st0" d="M65.03,0.03c-0.19-0.1-0.39-0.05-0.58-0.05c-21.27,0-42.54,0-63.8,0c-0.74,0-0.66-0.08-0.66,0.66
	c0,21.27,0,42.54,0,63.8c0,0.19-0.05,0.4,0.05,0.58c21.5,0,42.99,0,64.49,0.01c0.44,0,0.53-0.09,0.53-0.53
	C65.02,43.02,65.03,21.52,65.03,0.03z M36.7,35.29c-2.47-0.01-4.95,0.01-7.42-0.02c-0.46,0-0.56,0.13-0.56,0.57
	c0.02,3.83,0.01,7.65,0.01,11.48c0,3.83-0.01,7.65,0.01,11.48c0,0.42-0.11,0.55-0.54,0.54c-1.64-0.02-3.28-0.03-4.93,0
	c-0.47,0.01-0.56-0.15-0.56-0.58c0.01-7.58,0.01-15.16,0.01-22.74c0-0.84,0.1-0.73-0.76-0.73c-2.38-0.01-4.76-0.01-7.15,0.01
	c-0.42,0-0.56-0.1-0.55-0.54c0.04-1.46,0.05-2.92,0.06-4.38c0-0.27,0.05-0.38,0.35-0.38c7.34-0.03,14.69-0.12,22.03,0
	c0.44,0.01,0.46,0.24,0.46,0.54c0,1.43,0,2.85,0.02,4.28C37.19,35.2,37.07,35.3,36.7,35.29z M59.56,52.81
	c-0.53,3.55-3.2,5.74-6.75,6.57c-1.04,0.24-2.1,0.31-3.32,0.31c-3.31,0.02-6.37-1.02-8.9-3.45c-0.71-0.68-1.22-1.52-1.73-2.34
	c-0.13-0.21-0.16-0.36,0.1-0.51c1.47-0.85,2.93-1.7,4.39-2.57c0.3-0.18,0.38,0.03,0.5,0.19c0.56,0.83,1.23,1.56,2.01,2.18
	c1.76,1.4,4.97,1.53,6.71,0.26c1.36-0.98,1.5-2.95,0.29-4.11c-0.51-0.5-1.14-0.83-1.77-1.13c-1.76-0.83-3.54-1.62-5.28-2.48
	c-2.23-1.11-4.08-2.67-4.84-5.13c-1.44-4.66,0.57-9.2,5.38-10.59c2.15-0.62,4.32-0.52,6.46,0.09c2.18,0.62,3.68,2.12,4.91,3.94
	c0.16,0.23,0.12,0.37-0.1,0.53c-1.32,0.94-2.68,1.83-4.05,2.71c-0.22,0.14-0.36,0.07-0.5-0.11c-0.21-0.27-0.4-0.56-0.62-0.82
	c-1.01-1.24-2.62-1.73-4.14-1.27c-1.87,0.56-2.47,2.86-1.12,4.31c0.54,0.58,1.24,0.93,1.93,1.27c1.82,0.88,3.7,1.6,5.46,2.6
	c1.28,0.72,2.51,1.51,3.41,2.7C59.55,47.99,59.93,50.33,59.56,52.81z"/>
</svg>
