<?xml version="1.0" standalone="no"?>
<!DOCTYPE svg PUBLIC "-//W3C//DTD SVG 20010904//EN"
 "http://www.w3.org/TR/2001/REC-SVG-20010904/DTD/svg10.dtd">
<svg version="1.0" xmlns="http://www.w3.org/2000/svg"
 width="1280.000000pt" height="1280.000000pt" viewBox="0 0 1280.000000 1280.000000"
 preserveAspectRatio="xMidYMid meet">
<metadata>
Created by potrace 1.15, written by Peter Selinger 2001-2017
</metadata>
<g transform="translate(0.000000,1280.000000) scale(0.100000,-0.100000)"
fill="#8bc34a" stroke="none">
<path d="M5975 12789 c-527 -35 -1103 -149 -1610 -321 -1545 -523 -2832 -1613
-3609 -3055 -682 -1267 -914 -2747 -652 -4169 352 -1908 1560 -3560 3283
-4488 1543 -831 3387 -986 5048 -424 1544 523 2832 1613 3609 3055 400 743
639 1534 730 2418 16 151 26 378 26 595 0 135 -5 313 -10 395 -77 1139 -430
2189 -1053 3130 -247 372 -490 669 -817 995 -380 381 -742 666 -1195 945 -881
540 -1889 859 -2930 925 -185 12 -631 11 -820 -1z"/>
</g>
</svg>
