<?xml version="1.0" standalone="no"?>
<!DOCTYPE svg PUBLIC "-//W3C//DTD SVG 20010904//EN"
 "http://www.w3.org/TR/2001/REC-SVG-20010904/DTD/svg10.dtd">
<svg version="1.0" xmlns="http://www.w3.org/2000/svg"
 width="50.000000pt" height="50.000000pt" viewBox="0 0 50.000000 50.000000"
 preserveAspectRatio="xMidYMid meet">

<g transform="translate(0.000000,50.000000) scale(0.100000,-0.100000)"
fill="#000000" stroke="none">
<path d="M185 466 c-61 -27 -105 -94 -105 -159 0 -41 40 -125 74 -156 19 -18
26 -34 26 -62 0 -34 4 -40 35 -55 33 -15 37 -15 70 0 31 15 35 21 35 55 0 28
7 44 26 62 35 31 74 115 74 157 0 118 -129 205 -235 158z m133 -25 c40 -20 82
-83 82 -122 0 -46 -20 -96 -56 -137 -34 -40 -38 -42 -94 -42 -54 0 -60 2 -90
37 -84 95 -77 203 16 259 47 29 92 30 142 5z"/>
</g>
</svg>
