<?xml version="1.0" standalone="no"?>
<!DOCTYPE svg PUBLIC "-//W3C//DTD SVG 20010904//EN"
 "http://www.w3.org/TR/2001/REC-SVG-20010904/DTD/svg10.dtd">
<svg version="1.0" xmlns="http://www.w3.org/2000/svg"
 width="50.000000pt" height="50.000000pt" viewBox="0 0 50.000000 50.000000"
 preserveAspectRatio="xMidYMid meet">

<g transform="translate(0.000000,50.000000) scale(0.100000,-0.100000)"
fill="#000000" stroke="none">
<path d="M205 417 c-27 -27 -40 -33 -65 -29 -30 4 -70 -19 -70 -40 0 -5 -16
-24 -35 -42 -51 -49 -43 -121 16 -152 32 -16 139 -19 139 -4 0 6 -27 10 -60
10 -51 0 -65 4 -85 25 -33 32 -32 70 3 105 16 15 36 40 46 55 16 24 22 27 55
21 33 -5 39 -2 50 18 23 42 92 59 144 35 29 -13 57 -58 57 -93 0 -17 5 -26 15
-26 24 0 65 -46 65 -73 0 -43 -39 -67 -108 -67 -35 0 -62 -4 -62 -10 0 -6 29
-10 66 -10 59 0 68 3 95 29 46 46 37 106 -20 136 -20 10 -31 25 -35 49 -4 22
-20 46 -42 65 -29 26 -43 31 -85 31 -44 0 -55 -4 -84 -33z"/>
<path d="M240 158 c0 -91 0 -91 -20 -73 -34 31 -36 6 -2 -28 l32 -32 32 32
c34 34 32 59 -2 28 -20 -18 -20 -18 -20 73 0 55 -4 92 -10 92 -6 0 -10 -37
-10 -92z"/>
</g>
</svg>
